# xmcd
#
# Track frame offsets:
#	150
#	12890
#	29150
#	40667
#	53200
#	70517
#	85170
#	97015
#	111700
#	124662
#	139180
#	152297
#	166677
#	181610
#	193972
#	206745
#	220370
#	234210
#	250300
#	262272
#
# Disc length: 3687 seconds
#
# Revision: 0
# Processed by: cddbd v1.5.1PL0 Copyright (c) Steve Scherf et al.
# Submitted via: dBpowerAMP V4.0
#
DISCID=1b0e6514
DTITLE=Nestor Da Viola - O Violeiro Mais Sertanejo do Brasil Vol.3
DYEAR=1900
DGENRE=Sertanejo
TTITLE0=Saudade De Ouro Preto
TTITLE1=Chuá Chuá
TTITLE2=Meu Primeiro Amor
TTITLE3=Destinos Iguais
TTITLE4=Oração Pela Família
TTITLE5=Cheiro De Relva
TTITLE6=Beijinho Doce
TTITLE7=Vingança De Chico Mineiro
TTITLE8=Cavalo Preto
TTITLE9=Uma Casa De Caboclo
TTITLE10=Besta Ruana
TTITLE11=Boiada
TTITLE12=Saudade Da Minha Terra
TTITLE13=Nova Flôr (Os Homens Não Devem Chorar)
TTITLE14=Couro De Boi
TTITLE15=Homenagem Ao Santo Reis
TTITLE16=Recordação
TTITLE17=Velha Porteira
TTITLE18=Piracicaba
TTITLE19=Rio Pequeno
EXTD=
EXTT0=
EXTT1=
EXTT2=
EXTT3=
EXTT4=
EXTT5=
EXTT6=
EXTT7=
EXTT8=
EXTT9=
EXTT10=
EXTT11=
EXTT12=
EXTT13=
EXTT14=
EXTT15=
EXTT16=
EXTT17=
EXTT18=
EXTT19=
PLAYORDER=
